<svg width="177" height="24" viewBox="0 0 177 24" fill="none" xmlns="http://www.w3.org/2000/svg">
<g clip-path="url(#clip0_639_321)">
<rect width="24" height="24" fill="#DBD3FF"/>
<path d="M8.66729 14.861H6.85936L6.45368 13.6676H4.12542L3.7021 14.861H2L4.23125 9.13896H6.43604L8.66729 14.861ZM4.87505 11.5504L4.53992 12.4905H6.048L5.72169 11.5422C5.51003 10.9292 5.4042 10.6104 5.30719 10.2834C5.20136 10.6104 5.09553 10.9455 4.87505 11.5504Z" fill="black"/>
<path d="M12.0832 15C10.0812 15 8.79365 13.7902 8.79365 12.0163C8.79365 10.2834 10.1253 9 12.1008 9C13.6442 9 14.7554 9.75204 15.1082 10.8311L13.5119 11.3379C13.2914 10.6512 12.8505 10.2343 12.0744 10.2343C11.1395 10.2343 10.5663 10.8801 10.5663 12.0082C10.5663 13.1035 11.1395 13.7575 12.0744 13.7575C12.8328 13.7575 13.2914 13.3406 13.5384 12.654L15.117 13.1853C14.6937 14.2807 13.6354 15 12.0832 15Z" fill="black"/>
<path d="M22 14.861H19.9716L18.2254 12.4169L17.564 13.0545V14.861H15.9324V9.13896H17.564V11.346L19.6453 9.13896H21.7354L19.3895 11.4114L22 14.861Z" fill="black"/>
<path d="M42.598 17H39.728L39.084 14.956H35.388L34.716 17H32.014L35.556 7.2H39.056L42.598 17ZM36.578 11.33L36.046 12.94H38.44L37.922 11.316C37.586 10.266 37.418 9.72 37.264 9.16C37.096 9.72 36.928 10.294 36.578 11.33ZM48.6154 19.73H44.9054C43.5334 19.73 42.8754 19.198 42.8754 18.302C42.8754 17.686 43.2674 17.182 43.7574 16.902C43.2814 16.622 43.0154 16.23 43.0154 15.6C43.0154 14.914 43.5194 14.354 44.1914 14.004C43.7434 13.64 43.4354 13.038 43.4354 12.352C43.4354 10.7 44.8634 9.748 46.6974 9.748C48.0694 9.748 49.1334 10.308 49.6234 11.204C49.7074 10.182 50.0574 9.972 50.8554 9.972H51.4434V11.75H50.5194C50.1414 11.75 50.0154 11.876 49.9314 12.45L49.8894 12.604C49.6794 13.878 48.6154 14.83 46.7674 14.83C46.1514 14.83 45.6054 14.732 45.1994 14.55C44.9194 14.676 44.7934 14.816 44.7934 15.026C44.7934 15.32 45.0734 15.376 45.4514 15.376H48.6014C50.2534 15.376 51.1634 16.37 51.1634 17.518C51.1634 18.89 50.1274 19.73 48.6154 19.73ZM46.7254 13.486C47.3414 13.486 47.7754 13.08 47.7754 12.352C47.7754 11.624 47.3414 11.19 46.7254 11.19C46.1094 11.19 45.7034 11.624 45.7034 12.352C45.7034 13.08 46.1094 13.486 46.7254 13.486ZM45.4094 18.12H48.0974C48.6154 18.12 48.8254 17.896 48.8254 17.546C48.8254 17.252 48.6154 17 48.0974 17H45.0454C44.8914 17.112 44.7514 17.322 44.7514 17.546C44.7514 17.91 44.9894 18.12 45.4094 18.12ZM55.4077 17.238C53.1117 17.238 51.6837 15.81 51.6837 13.458C51.6837 11.26 53.2377 9.748 55.3937 9.748C57.9417 9.748 59.2297 11.554 58.9917 14.004H54.1057C54.1337 15.082 54.6657 15.53 55.4077 15.53C56.1777 15.53 56.5697 15.04 56.8217 14.438L59.0477 15.152C58.5857 16.202 57.5777 17.238 55.4077 17.238ZM54.1617 12.604H56.6117C56.5697 11.82 56.1217 11.358 55.4077 11.358C54.7077 11.358 54.2597 11.778 54.1617 12.604ZM62.7428 17H60.2788V9.972H62.6588V11.078C62.9948 10.476 63.7648 9.748 64.9548 9.748C66.5368 9.748 67.2928 10.728 67.2928 12.296V17H64.8288V12.758C64.8288 11.988 64.4508 11.638 63.8768 11.638C62.8408 11.638 62.7428 12.73 62.7428 13.374V17ZM74.0317 17H71.5677C70.2937 17 69.5937 16.23 69.5937 14.984V11.68H68.1797V9.972H69.5937V7.816H72.0157V9.972H73.6957V11.68H72.0157V14.606C72.0157 14.97 72.1837 15.152 72.5617 15.152H74.0317V17ZM83.0069 17.238C79.8289 17.238 77.7849 15.166 77.7849 12.128C77.7849 9.16 79.8989 6.962 83.0349 6.962C85.4849 6.962 87.2489 8.25 87.8089 10.098L85.2749 10.966C84.9249 9.79 84.2249 9.076 82.9929 9.076C81.5089 9.076 80.5989 10.182 80.5989 12.114C80.5989 13.99 81.5089 15.11 82.9929 15.11C84.1969 15.11 84.9249 14.396 85.3169 13.22L87.8229 14.13C87.1509 16.006 85.4709 17.238 83.0069 17.238ZM92.4074 17.238C90.0974 17.238 88.5154 15.712 88.5154 13.486C88.5154 11.218 90.0974 9.748 92.4074 9.748C94.7314 9.748 96.3274 11.218 96.3274 13.486C96.3274 15.782 94.7314 17.238 92.4074 17.238ZM92.4074 15.474C93.2194 15.474 93.7514 14.858 93.7514 13.5C93.7514 12.142 93.2194 11.512 92.4074 11.512C91.6094 11.512 91.0914 12.142 91.0914 13.5C91.0914 14.858 91.6094 15.474 92.4074 15.474ZM100.012 17H97.5483V9.972H99.9283V11.05C100.348 10.266 101.146 9.748 102.112 9.748C103.036 9.748 103.736 10.252 104.114 11.05C104.66 10.224 105.43 9.748 106.452 9.748C107.712 9.748 108.79 10.476 108.79 12.31V17H106.326V12.758C106.326 11.974 105.962 11.638 105.416 11.638C104.478 11.638 104.366 12.59 104.366 13.22V17H101.972V12.758C101.972 11.974 101.594 11.638 101.048 11.638C100.11 11.638 100.012 12.59 100.012 13.22V17ZM112.809 17H110.345V9.972H112.725V11.05C113.145 10.266 113.943 9.748 114.909 9.748C115.833 9.748 116.533 10.252 116.911 11.05C117.457 10.224 118.227 9.748 119.249 9.748C120.509 9.748 121.587 10.476 121.587 12.31V17H119.123V12.758C119.123 11.974 118.759 11.638 118.213 11.638C117.275 11.638 117.163 12.59 117.163 13.22V17H114.769V12.758C114.769 11.974 114.391 11.638 113.845 11.638C112.907 11.638 112.809 12.59 112.809 13.22V17ZM126.474 17.238C124.178 17.238 122.75 15.81 122.75 13.458C122.75 11.26 124.304 9.748 126.46 9.748C129.008 9.748 130.296 11.554 130.058 14.004H125.172C125.2 15.082 125.732 15.53 126.474 15.53C127.244 15.53 127.636 15.04 127.888 14.438L130.114 15.152C129.652 16.202 128.644 17.238 126.474 17.238ZM125.228 12.604H127.678C127.636 11.82 127.188 11.358 126.474 11.358C125.774 11.358 125.326 11.778 125.228 12.604ZM133.823 17H131.345V9.972H133.739V11.708C134.019 10.882 134.663 9.804 136.189 9.804C136.385 9.804 136.525 9.818 136.679 9.846V12.212C136.357 12.17 136.077 12.142 135.783 12.142C134.411 12.142 133.823 12.772 133.823 14.284V17ZM141.051 17.238C138.755 17.238 137.201 15.754 137.201 13.5C137.201 11.232 138.825 9.748 141.065 9.748C142.913 9.748 144.215 10.7 144.635 12.044L142.353 12.716C142.143 11.932 141.653 11.498 141.009 11.498C140.211 11.498 139.623 12.142 139.623 13.472C139.623 14.802 140.225 15.474 141.023 15.474C141.709 15.474 142.157 15.04 142.395 14.186L144.733 14.76C144.257 16.3 142.941 17.238 141.051 17.238ZM149.087 17.238C146.791 17.238 145.363 15.81 145.363 13.458C145.363 11.26 146.917 9.748 149.073 9.748C151.621 9.748 152.909 11.554 152.671 14.004H147.785C147.813 15.082 148.345 15.53 149.087 15.53C149.857 15.53 150.249 15.04 150.501 14.438L152.727 15.152C152.265 16.202 151.257 17.238 149.087 17.238ZM147.841 12.604H150.291C150.249 11.82 149.801 11.358 149.087 11.358C148.387 11.358 147.939 11.778 147.841 12.604ZM166.794 17H163.574L160.802 12.814L159.752 13.906V17H157.162V7.2H159.752V8.53V10.98L163.056 7.2H166.374L162.65 11.092L166.794 17ZM169.877 9.104H167.315V7.046H169.877V9.104ZM169.835 17H167.357V9.972H169.835V17ZM176.639 17H174.175C172.901 17 172.201 16.23 172.201 14.984V11.68H170.787V9.972H172.201V7.816H174.623V9.972H176.303V11.68H174.623V14.606C174.623 14.97 174.791 15.152 175.169 15.152H176.639V17Z" fill="white"/>
</g>
<defs>
<clipPath id="clip0_639_321">
<rect width="177" height="24" fill="white"/>
</clipPath>
</defs>
</svg>
