<svg width="396" height="396" viewBox="0 0 396 396" fill="none" xmlns="http://www.w3.org/2000/svg">
<rect width="396" height="396" fill="#DBD3FF"/>
<path d="M144.008 246H114.488L107.864 224.976H69.848L62.936 246H35.144L71.576 145.2H107.576L144.008 246ZM82.088 187.68L76.616 204.24H101.24L95.912 187.536C92.456 176.736 90.728 171.12 89.144 165.36C87.416 171.12 85.688 177.024 82.088 187.68ZM199.783 248.448C167.095 248.448 146.071 227.136 146.071 195.888C146.071 165.36 167.815 142.752 200.071 142.752C225.271 142.752 243.415 156 249.175 175.008L223.111 183.936C219.511 171.84 212.311 164.496 199.639 164.496C184.375 164.496 175.015 175.872 175.015 195.744C175.015 215.04 184.375 226.56 199.639 226.56C212.023 226.56 219.511 219.216 223.543 207.12L249.319 216.48C242.407 235.776 225.127 248.448 199.783 248.448ZM361.706 246H328.586L300.074 202.944L289.274 214.176V246H262.634V145.2H289.274V158.88V184.08L323.258 145.2H357.386L319.082 185.232L361.706 246Z" fill="black"/>
</svg>
